<svg fill="none" height="20" viewBox="0 0 20 20" width="20" xmlns="http://www.w3.org/2000/svg" xmlns:xlink="http://www.w3.org/1999/xlink"><mask id="a" height="20" maskUnits="userSpaceOnUse" width="20" x="0" y="0"><path d="m0 0h20v20h-20z" fill="#d9d9d9"/></mask><g mask="url(#a)"><path d="m7.5 15.0001c-.45833 0-.85069-.1632-1.17708-.4896s-.48959-.7188-.48959-1.1771v-9.99999c0-.45833.1632-.85069.48959-1.17708s.71875-.48958 1.17708-.48958h7.5c.4583 0 .8507.16319 1.1771.48958s.4896.71875.4896 1.17708v9.99999c0 .4583-.1632.8507-.4896 1.1771s-.7188.4896-1.1771.4896zm0-1.6667h7.5v-9.99999h-7.5zm-3.33333 5c-.45834 0-.8507-.1632-1.17709-.4896s-.48958-.7187-.48958-1.1771v-11.66662h1.66667v11.66662h9.16663v1.6667z" fill="#13522a"/></g></svg>