<svg fill="none" height="20" viewBox="0 0 20 20" width="20" xmlns="http://www.w3.org/2000/svg" xmlns:xlink="http://www.w3.org/1999/xlink"><mask id="a" height="20" maskUnits="userSpaceOnUse" width="20" x="0" y="0"><path d="m0 0h20v20h-20z" fill="#d9d9d9"/></mask><g mask="url(#a)"><path d="m10 18.3333c-1.04167 0-2.01736-.198-2.92708-.5938-.90973-.3958-1.70139-.9306-2.375-1.6042s-1.20834-1.4652-1.60417-2.375c-.39583-.9097-.59375-1.8854-.59375-2.927h1.66667c0 1.625.56597 3.0034 1.69791 4.1354 1.13195 1.1319 2.51042 1.6979 4.13542 1.6979s3.0035-.566 4.1354-1.6979c1.132-1.132 1.6979-2.5104 1.6979-4.1354 0-1.62505-.5659-3.00352-1.6979-4.13547-1.1319-1.13194-2.5104-1.69791-4.1354-1.69791h-.125l1.2917 1.29167-1.1667 1.20833-3.33333-3.33333 3.33333-3.333338 1.1667 1.208338-1.2917 1.29166h.125c1.0417 0 2.0174.19792 2.9271.59375.9097.39584 1.7014.93056 2.375 1.60417s1.2083 1.46528 1.6041 2.375c.3959.90972.5938 1.88541.5938 2.92713 0 1.0416-.1979 2.0173-.5938 2.927-.3958.9098-.9305 1.7014-1.6041 2.375s-1.4653 1.2084-2.375 1.6042-1.8854.5938-2.9271.5938z" fill="#13522a"/></g></svg>