<svg fill="none" height="36" viewBox="0 0 36 36" width="36" xmlns="http://www.w3.org/2000/svg" xmlns:xlink="http://www.w3.org/1999/xlink"><clipPath id="a"><rect height="36" rx="18" width="36"/></clipPath><mask id="b" height="42" maskUnits="userSpaceOnUse" width="42" x="-3" y="1"><path d="m-3 1h42v42h-42z" fill="#d9d9d9"/></mask><g clip-path="url(#a)"><rect fill="#393938" height="36" rx="18" width="36"/><g mask="url(#b)"><path d="m18 22c-1.925 0-3.5729-.6854-4.9437-2.0562-1.3709-1.3709-2.0563-3.0188-2.0563-4.9438s.6854-3.5729 2.0563-4.9437c1.3708-1.37088 3.0187-2.0563 4.9437-2.0563s3.5729.68542 4.9437 2.0563c1.3709 1.3708 2.0563 3.0187 2.0563 4.9437s-.6854 3.5729-2.0563 4.9438c-1.3708 1.3708-3.0187 2.0562-4.9437 2.0562zm-14 14v-4.9c0-.9917.25521-1.9031.76562-2.7344.51042-.8312 1.18855-1.4656 2.03438-1.9031 1.80833-.9042 3.6458-1.5823 5.5125-2.0344s3.7625-.6781 5.6875-.6781 3.8208.226 5.6875.6781 3.7042 1.1302 5.5125 2.0344c.8458.4375 1.524 1.0719 2.0344 1.9031.5104.8313.7656 1.7427.7656 2.7344v4.9z" fill="#fbfaf7"/></g></g></svg>